<svg width="26" height="26" viewBox="0 0 26 26" fill="none" xmlns="http://www.w3.org/2000/svg">
<path id="Vector" d="M13 0C16.4478 0 19.7544 1.36964 22.1924 3.80761C24.6304 6.24558 26 9.55219 26 13C26 16.4478 24.6304 19.7544 22.1924 22.1924C19.7544 24.6304 16.4478 26 13 26C9.55219 26 6.24558 24.6304 3.80761 22.1924C1.36964 19.7544 0 16.4478 0 13C0 9.55219 1.36964 6.24558 3.80761 3.80761C6.24558 1.36964 9.55219 0 13 0ZM11.7812 6.09375V13C11.7812 13.4062 11.9844 13.7871 12.3246 14.0156L17.1996 17.2656C17.7582 17.6414 18.5148 17.4891 18.8906 16.9254C19.2664 16.3617 19.1141 15.6102 18.5504 15.2344L14.2188 12.35V6.09375C14.2188 5.41836 13.6754 4.875 13 4.875C12.3246 4.875 11.7812 5.41836 11.7812 6.09375Z" fill="#83BCFF"/>
</svg>
