<svg width="32" height="40" viewBox="0 0 32 40" fill="none" xmlns="http://www.w3.org/2000/svg">
<path d="M30.9976 13.5379C28.3759 15.1718 26.7566 17.9727 26.7566 21.0849C26.7566 24.586 28.8385 27.776 32 29.0987C31.3831 31.1216 30.4578 32.9888 29.3012 34.7005C27.6048 37.1125 25.8313 39.6022 23.2096 39.6022C20.5879 39.6022 19.8169 38.0461 16.7325 38.0461C13.7253 38.0461 12.6458 39.68 10.1783 39.68C7.71084 39.68 6.01446 37.4237 4.08675 34.6227C1.54217 30.7325 0.0771084 26.2199 0 21.4739C0 13.7713 4.93494 9.64768 9.86988 9.64768C12.4916 9.64768 14.6506 11.3594 16.2699 11.3594C17.812 11.3594 20.2795 9.56988 23.2096 9.56988C26.294 9.49207 29.2241 10.9703 30.9976 13.5379ZM21.8217 6.30212C23.1325 4.74604 23.8265 2.80094 23.9036 0.778039C23.9036 0.544627 23.9036 0.233412 23.8265 0C21.5904 0.233412 19.5084 1.32267 18.0434 3.03435C16.7325 4.51263 15.9614 6.37992 15.8843 8.40282C15.8843 8.63623 15.8843 8.86964 15.9614 9.10306C16.1157 9.10306 16.347 9.18086 16.5012 9.18086C18.5831 9.02525 20.5108 7.936 21.8217 6.30212Z" fill="#E0E0E0"/>
</svg>
