<svg width="50" height="14" viewBox="0 0 50 14" fill="none" xmlns="http://www.w3.org/2000/svg">
<path fill-rule="evenodd" clip-rule="evenodd" d="M45.3268 0.404444H40.1634L37.2222 8.49333C37.3529 7.80889 37.3856 7.28 37.3856 7.06222C37.3856 3.67111 35.3595 0.404444 30.5556 0.404444H25.0327V8.46222C24.5425 6.16 22.3529 5.56889 19.6405 4.76C18.6275 4.44889 18.0719 3.98222 18.268 3.54667C18.4314 3.17333 19.085 3.04889 19.8366 3.14222C20.9804 3.29778 21.9281 3.67111 22.8105 4.13778L24.0196 1.24444C23.7582 1.12 21.7647 0 19.281 0C15.8497 0 13.6601 1.58667 13.6601 3.95111C13.6601 6.06667 15.0327 7.28 17.5163 7.96444C20.1961 8.71111 20.8824 9.02222 20.817 9.73778C20.7516 10.36 19.085 11.1378 15 8.74222L13.7909 11.1378L10.0327 0.404444H4.86928L0 13.7822H4.05229L4.8366 11.6356H9.60784L10.4248 13.7822H14.6732L14.183 12.4756C15.6209 13.2533 17.4183 14 19.5425 14C22.8105 14 24.5752 12.2889 25 10.6711V13.7822H30.4902C33.7582 13.7822 35.4902 12.2889 36.3726 10.7022L35.2614 13.7822H39.3137L40.1307 11.6356H44.9673L45.6863 13.7822H50L45.3268 0.404444ZM5.75163 8.61778L7.2549 4.01333L8.69281 8.61778H5.75163ZM29.1176 10.3289V3.85778H30.098C31.4706 3.85778 32.9739 4.38667 32.9739 7.09333C32.9739 9.48889 31.634 10.3289 30.098 10.3289H29.1176ZM41.1438 8.61778L42.5817 4.07556L44.085 8.61778H41.1438Z" fill="#34C759"/>
</svg>
