<svg width="18" height="20" viewBox="0 0 18 20" fill="none" xmlns="http://www.w3.org/2000/svg">
<path d="M9 0C11.3869 0 13.6761 1.00216 15.364 2.78601C17.0518 4.56986 18 6.98929 18 9.51204C18 12.0348 17.0518 14.4542 15.364 16.2381C13.6761 18.0219 11.3869 19.0241 9 19.0241C6.61305 19.0241 4.32387 18.0219 2.63604 16.2381C0.948212 14.4542 0 12.0348 0 9.51204C0 6.98929 0.948212 4.56986 2.63604 2.78601C4.32387 1.00216 6.61305 0 9 0ZM8.15625 4.45877V9.51204C8.15625 9.80929 8.29688 10.088 8.53242 10.2552L11.9074 12.6332C12.2941 12.9081 12.818 12.7967 13.0781 12.3842C13.3383 11.9718 13.2328 11.4219 12.8426 11.1469L9.84375 9.03643V4.45877C9.84375 3.96459 9.46758 3.56701 9 3.56701C8.53242 3.56701 8.15625 3.96459 8.15625 4.45877Z" fill="white"/>
</svg>
