<svg width="50" height="50" viewBox="0 0 50 50" fill="none" xmlns="http://www.w3.org/2000/svg">
<path d="M25 0C31.6304 0 37.9893 2.63392 42.6777 7.32233C47.3661 12.0107 50 18.3696 50 25C50 31.6304 47.3661 37.9893 42.6777 42.6777C37.9893 47.3661 31.6304 50 25 50C18.3696 50 12.0107 47.3661 7.32233 42.6777C2.63392 37.9893 0 31.6304 0 25C0 18.3696 2.63392 12.0107 7.32233 7.32233C12.0107 2.63392 18.3696 0 25 0ZM22.6562 11.7188V25C22.6562 25.7812 23.0469 26.5137 23.7012 26.9531L33.0762 33.2031C34.1504 33.9258 35.6055 33.6328 36.3281 32.5488C37.0508 31.4648 36.7578 30.0195 35.6738 29.2969L27.3438 23.75V11.7188C27.3438 10.4199 26.2988 9.375 25 9.375C23.7012 9.375 22.6562 10.4199 22.6562 11.7188Z" fill="white"/>
</svg>
