<svg width="60" height="60" viewBox="0 0 60 60" fill="none" xmlns="http://www.w3.org/2000/svg">
<path d="M31.8019 0.0553585C15.27 -0.942012 1.05273 11.6569 0.0553585 28.1982C-0.942012 44.73 11.6569 58.9473 28.1982 59.9446C44.73 60.942 58.9473 48.3431 59.9446 31.8018C60.942 15.27 48.3432 1.05273 31.8019 0.0553585ZM45.6804 41.6815L41.6909 45.671L29.9953 33.9754L18.2997 45.671L14.3102 41.6815L26.0058 29.9859L14.3102 18.2903L18.2997 14.3008L29.9953 25.9964L41.6909 14.3008L45.6804 18.2903L33.9848 29.9859L45.6804 41.6815Z" fill="#B82510"/>
<path d="M41.6909 45.671L45.6804 41.6815L33.9848 29.9859L45.6804 18.2903L41.6909 14.3008L29.9953 25.9964L18.2997 14.3008L14.3102 18.2903L26.0058 29.9859L14.3102 41.6815L18.2997 45.671L29.9953 33.9754L41.6909 45.671Z" fill="white"/>
</svg>
