<svg width="48" height="20" viewBox="0 0 48 20" fill="none" xmlns="http://www.w3.org/2000/svg">
<path d="M9.33333 18.6076V20H0V18.6076H9.33333ZM23.9192 18.6075C22.983 19.5064 21.7566 20.0036 20.4848 19.9999L10.6667 19.9862V18.6075H23.9192ZM37.7969 18.6075L37.3313 19.9999L36.8699 18.6075H37.7969ZM33.3334 18.6076V20H26.6667V18.6076H33.3334ZM48 18.6076V20H41.3333V18.6076H48ZM25.4294 15.9493C25.315 16.4378 25.1343 16.9067 24.893 17.3418H10.6667V15.9493H25.4294ZM38.6904 15.9494L38.2224 17.3418H36.4443L35.9763 15.9494H38.6904ZM33.3334 15.9493V17.3418H26.6667V15.9493H33.3334ZM48 15.9493V17.3418H41.3333V15.9493H48ZM9.33333 15.9493V17.3418H0V15.9493H9.33333ZM6.66666 13.2911V14.6835H2.66666V13.2911H6.66666ZM17.3333 13.2911V14.6835H13.3333V13.2911H17.3333ZM25.3974 13.2911C25.5156 13.745 25.5755 14.2132 25.5758 14.6835H21.0909V13.2911H25.3974ZM39.5841 13.2911L39.1159 14.6835H35.5508L35.0826 13.2911H39.5841ZM33.3333 13.2911V14.6835H29.3333V13.2911H33.3333ZM45.3333 13.2911V14.6835H41.3333V13.2911H45.3333ZM6.66666 10.6329V12.0253H2.66666V10.6329H6.66666ZM33.3333 10.6329V12.0253H29.3333V10.6329H33.3333ZM45.3333 10.6329V12.0253H41.3333V10.6329H45.3333ZM23.7793 10.6328C24.2234 11.0273 24.5995 11.4983 24.8915 12.0252H13.3333V10.6328H23.7793ZM40.4776 10.6328L40.0097 12.0253H34.6571L34.189 10.6328H40.4776ZM36.9585 7.97473L37.3334 9.10022L37.708 7.97473H45.3333V9.36715H41.3334V8.08767L40.9032 9.36715H33.7635L33.3333 8.08751V9.36715H29.3334V7.97473H36.9585ZM13.3333 7.97466L24.8916 7.97474C24.5996 8.50172 24.2234 8.97265 23.7793 9.36715H13.3333V7.97466ZM6.66666 7.97466V9.36707H2.66666V7.97466H6.66666ZM6.66666 5.31645V6.70886H2.66666V5.31645H6.66666ZM17.3333 5.31645V6.70886H13.3333V5.31645H17.3333ZM25.5758 5.31647C25.5755 5.7868 25.5156 6.25502 25.3974 6.70887H21.0909V5.31647H25.5758ZM36.0733 5.31645L36.537 6.70887H29.3334V5.31645H36.0733ZM45.3333 5.31645V6.70887H38.1297L38.5934 5.31645H45.3333ZM9.33333 2.65822V4.05063H0V2.65822H9.33333ZM24.893 2.65822C25.1343 3.09331 25.315 3.56217 25.4294 4.0506H10.6667V2.65822H24.893ZM48 2.65818V4.0506H39.0148L39.4785 2.65818H48ZM35.1882 2.65818L35.6519 4.0506H26.6667V2.65818H35.1882ZM9.33333 9.65051e-06V1.39242H0V9.65051e-06H9.33333ZM20.4848 4.81224e-06C21.7563 -0.00178394 22.982 0.495157 23.9192 1.3924H10.6667V4.81224e-06H20.4848ZM48 5.66442e-05V1.39248H39.9L40.3636 5.66442e-05H48ZM34.3031 5.66442e-05L34.7667 1.39248H26.6667V5.66442e-05H34.3031Z" fill="#0088FF"/>
</svg>
