<svg width="8" height="20" viewBox="0 0 8 20" fill="none" xmlns="http://www.w3.org/2000/svg">
<path id="Vector" d="M2 2C2 1.46957 2.21071 0.960859 2.58579 0.585786C2.96086 0.210714 3.46957 0 4 0C4.53043 0 5.03914 0.210714 5.41421 0.585786C5.78929 0.960859 6 1.46957 6 2C6 2.53043 5.78929 3.03914 5.41421 3.41421C5.03914 3.78929 4.53043 4 4 4C3.46957 4 2.96086 3.78929 2.58579 3.41421C2.21071 3.03914 2 2.53043 2 2ZM0 8C0 7.2625 0.595833 6.66667 1.33333 6.66667H4C4.7375 6.66667 5.33333 7.2625 5.33333 8V17.3333H6.66667C7.40417 17.3333 8 17.9292 8 18.6667C8 19.4042 7.40417 20 6.66667 20H1.33333C0.595833 20 0 19.4042 0 18.6667C0 17.9292 0.595833 17.3333 1.33333 17.3333H2.66667V9.33333H1.33333C0.595833 9.33333 0 8.7375 0 8Z" fill="#ECECEC"/>
</svg>
