<svg width="20" height="16" viewBox="0 0 20 16" fill="none" xmlns="http://www.w3.org/2000/svg">
<path id="Vector" d="M15.5 0C14.837 0 14.2011 0.263392 13.7322 0.732233C13.2634 1.20107 13 1.83696 13 2.5C13 3.16304 13.2634 3.79893 13.7322 4.26777C14.2011 4.73661 14.837 5 15.5 5C16.163 5 16.7989 4.73661 17.2678 4.26777C17.7366 3.79893 18 3.16304 18 2.5C18 1.83696 17.7366 1.20107 17.2678 0.732233C16.7989 0.263392 16.163 0 15.5 0ZM4 0C3.33696 0 2.70107 0.263392 2.23223 0.732233C1.76339 1.20107 1.5 1.83696 1.5 2.5C1.5 3.16304 1.76339 3.79893 2.23223 4.26777C2.70107 4.73661 3.33696 5 4 5C4.66304 5 5.29893 4.73661 5.76777 4.26777C6.23661 3.79893 6.5 3.16304 6.5 2.5C6.5 1.83696 6.23661 1.20107 5.76777 0.732233C5.29893 0.263392 4.66304 0 4 0ZM20 9.33438C20 7.49375 18.5063 6 16.6656 6H15.3313C14.8344 6 14.3625 6.10938 13.9375 6.30312C13.9781 6.52812 13.9969 6.7625 13.9969 7C13.9969 8.19375 13.4719 9.26562 12.6438 10C12.65 10 12.6562 10 12.6656 10H19.3344C19.7 10 20 9.7 20 9.33438ZM7.33438 10C7.34063 10 7.34688 10 7.35625 10C6.525 9.26562 6.00313 8.19375 6.00313 7C6.00313 6.7625 6.025 6.53125 6.0625 6.30312C5.6375 6.10625 5.16562 6 4.66875 6H3.33438C1.49375 6 0 7.49375 0 9.33438C0 9.70312 0.299999 10 0.665625 10H7.33438ZM13 7C13 6.20435 12.6839 5.44129 12.1213 4.87868C11.5587 4.31607 10.7956 4 10 4C9.20435 4 8.44129 4.31607 7.87868 4.87868C7.31607 5.44129 7 6.20435 7 7C7 7.79565 7.31607 8.55871 7.87868 9.12132C8.44129 9.68393 9.20435 10 10 10C10.7956 10 11.5587 9.68393 12.1213 9.12132C12.6839 8.55871 13 7.79565 13 7ZM16 15.1656C16 12.8656 14.1344 11 11.8344 11H8.16562C5.86562 11 4 12.8656 4 15.1656C4 15.625 4.37188 16 4.83438 16H15.1656C15.625 16 16 15.6281 16 15.1656Z" fill="#ECECEC"/>
</svg>
