<svg width="40" height="40" viewBox="0 0 40 40" fill="none" xmlns="http://www.w3.org/2000/svg">
<path d="M20 0C8.95232 0 0 8.95232 0 20C0 31.0477 8.95232 40 20 40C31.0477 40 40 31.0477 40 20C40 8.95232 31.0414 0 20 0ZM32.9046 29.6173H7.08908V25.8532H32.9046V29.6173ZM32.9046 21.8821H7.08908V18.1179H32.9046V21.8821ZM32.9046 14.1468H7.08908V10.3827H32.9046V14.1468Z" fill="#003B78"/>
<path d="M7.08908 29.6173H32.9046V25.8532H7.08908V29.6173Z" fill="white"/>
<path d="M7.08908 21.8821H32.9046V18.1179H7.08908V21.8821Z" fill="white"/>
<path d="M7.08908 14.1468H32.9046V10.3827H7.08908V14.1468Z" fill="white"/>
</svg>
