<svg width="40" height="40" viewBox="0 0 40 40" fill="none" xmlns="http://www.w3.org/2000/svg">
<path d="M21.2046 0.0369118C10.1753 -0.628106 0.701929 7.77245 0.0369115 18.7954C-0.628106 29.8184 7.77245 39.2981 18.8017 39.9631C29.8247 40.6281 39.3043 32.2275 39.9694 21.1983C40.6281 10.1753 32.2275 0.70193 21.2046 0.0369118ZM30.4583 27.7983L27.7983 30.4583L20 22.6601L12.2017 30.4583L9.54165 27.7983L17.3399 20L9.54165 12.2017L12.2017 9.54165L20 17.3399L27.7983 9.54165L30.4583 12.2017L22.6601 20L30.4583 27.7983Z" fill="#003B78"/>
<path d="M27.7983 30.4583L30.4583 27.7983L22.6601 20L30.4583 12.2017L27.7983 9.54165L20 17.3399L12.2017 9.54165L9.54165 12.2017L17.3399 20L9.54165 27.7983L12.2017 30.4583L20 22.6601L27.7983 30.4583Z" fill="white"/>
</svg>
