<svg width="24" height="17" viewBox="0 0 24 17" fill="none" xmlns="http://www.w3.org/2000/svg">
<path d="M24 3.07151C24 2.7235 23.6994 2.44139 23.3303 2.44139C22.9612 2.44139 22.6818 2.70504 22.6633 3.03724V14.7644C22.6633 15.202 22.31 15.5553 21.8723 15.5553C21.4347 15.5553 21.0814 15.202 21.0814 14.7644V1.03351C21.0814 0.464023 20.62 0 20.0479 0H1.03351C0.461386 0 0 0.461386 0 1.03351V14.3188C0 15.645 1.07569 16.718 2.39921 16.718H22.4418C23.3013 16.718 23.9974 16.022 23.9974 15.1625C23.9974 15.1572 23.9974 15.1519 23.9974 15.1467C23.9974 15.144 23.9974 15.1414 23.9974 15.1387V3.07151H24ZM9.6522 14.8751H3.7781C2.8685 14.8751 2.13292 14.1395 2.13292 13.2299V5.73174H9.64957V14.8751H9.6522ZM16.2698 14.8751H11.7429V13.0454H16.2698V14.8751ZM18.8509 11.6823H11.7403V9.85258H18.8509V11.6823ZM18.8509 8.48951H11.7403V6.65978H18.8509V8.48951ZM18.8509 4.07602H2.13292V2.24629H18.8509V4.07602Z" fill="white"/>
</svg>
