<svg width="40" height="40" viewBox="0 0 40 40" fill="none" xmlns="http://www.w3.org/2000/svg">
<path d="M20 0C8.95232 0 0 8.95232 0 20C0 31.0477 8.95232 40 20 40C31.0477 40 40 31.0477 40 20C40 8.95232 31.0414 0 20 0ZM20 7.45922C23.2873 7.45922 25.9599 10.1255 25.9599 13.4191C25.9599 16.7127 23.2936 19.3789 20 19.3789C16.7064 19.3789 14.0402 16.7127 14.0402 13.4191C14.0402 10.1255 16.7064 7.45922 20 7.45922ZM20 20.32C31.2923 20.32 29.5985 34.1405 29.5985 34.1405C29.1844 34.335 26.3363 36.4178 20 36.4178C13.6637 36.4178 10.8156 34.335 10.4015 34.1405C10.4015 34.1405 8.70765 20.32 20 20.32Z" fill="#E92508"/>
<path d="M29.5985 34.1405C29.5985 34.1405 31.2923 20.32 20 20.32C8.70765 20.32 10.4015 34.1405 10.4015 34.1405C10.8156 34.335 13.6637 36.4178 20 36.4178C26.3363 36.4178 29.1844 34.335 29.5985 34.1405Z" fill="white"/>
<path d="M25.9599 13.4191C25.9599 10.1255 23.2873 7.45922 20 7.45922C16.7064 7.45922 14.0402 10.1255 14.0402 13.4191C14.0402 16.7127 16.7064 19.3789 20 19.3789C23.2936 19.3789 25.9599 16.7127 25.9599 13.4191Z" fill="white"/>
</svg>
