<svg width="50" height="14" viewBox="0 0 50 14" fill="none" xmlns="http://www.w3.org/2000/svg">
<path d="M3.83572 11.6236H9.95313C10.0025 11.6236 10.0025 11.6753 9.95313 11.6753C9.21312 11.9852 8.22644 12.9668 8.22644 12.9668C7.53577 13.5867 6.99309 14 5.85841 14H0.0370005C-0.0123335 14 -0.0123335 13.9483 0.0370005 13.9483C0.678342 13.5867 1.61569 12.6052 1.61569 12.6052C2.01036 12.1919 2.7997 11.6236 3.83572 11.6236Z" fill="#FF383C"/>
<path d="M43.8456 11.6236H49.963C50.0123 11.6236 50.0123 11.6753 49.963 11.6753C49.2723 11.9852 48.2856 12.9668 48.2856 12.9668C47.595 13.5867 47.0523 14 45.9176 14H40.0469C39.9975 14 39.9975 13.9483 40.0469 13.9483C40.6882 13.5867 41.6256 12.6052 41.6256 12.6052C42.0696 12.1919 42.8589 11.6236 43.8456 11.6236Z" fill="#FF383C"/>
<path d="M13.8505 11.6236H19.9679C20.0173 11.6236 20.0173 11.6753 19.9679 11.6753C19.2773 11.9852 18.2906 12.9668 18.2906 12.9668C17.5999 13.5867 17.0572 14 15.9225 14H10.1011C10.0518 14 10.0518 13.9483 10.1011 13.9483C10.7425 13.5867 11.6798 12.6052 11.6798 12.6052C12.0252 12.1919 12.8145 11.6236 13.8505 11.6236Z" fill="#FF383C"/>
<path d="M23.816 11.6236H29.9334C29.9827 11.6236 29.9827 11.6753 29.9334 11.6753C29.2427 11.9852 28.256 12.9668 28.256 12.9668C27.5654 13.5867 27.0227 14 25.888 14H20.0666C20.0173 14 20.0173 13.9483 20.0666 13.9483C20.7079 13.5867 21.6453 12.6052 21.6453 12.6052C22.04 12.1919 22.8293 11.6236 23.816 11.6236Z" fill="#FF383C"/>
<path d="M33.8308 11.6236H39.9482C39.9975 11.6236 39.9975 11.6753 39.9482 11.6753C39.2575 11.9852 38.2708 12.9668 38.2708 12.9668C37.5802 13.5867 37.0375 14 35.9028 14H30.0814C30.0321 14 30.0321 13.9483 30.0814 13.9483C30.7227 13.5867 31.6601 12.6052 31.6601 12.6052C32.0548 12.1919 32.8441 11.6236 33.8308 11.6236Z" fill="#FF383C"/>
<path d="M35.5081 0.0516605C31.6601 0.0516605 29.1441 1.9631 29.1441 4.90775C29.1441 7.59409 31.4628 9.40221 34.9655 9.40221C36.1001 9.40221 37.0868 9.24723 38.2708 8.93727V6.66421C37.4322 7.59409 36.4455 7.95572 35.3601 7.95572C33.2881 7.95572 31.9068 6.61255 31.9068 4.64945C31.9068 2.73801 33.3868 1.34317 35.4095 1.34317C36.5442 1.34317 37.4322 1.75646 38.1228 2.4797V0.309963C37.3828 0.103321 36.4455 0.0516605 35.5081 0.0516605Z" fill="#FF383C"/>
<path d="M6.64775 1.60148C8.07844 1.60148 9.75579 1.85978 10.4958 2.4797V0.309963H0.333004V2.4797C1.07301 1.91144 2.55303 1.65314 4.18106 1.65314V7.54244C4.18106 8.42066 4.13172 8.62731 3.73705 9.09225H6.99309C6.64775 8.62731 6.54909 8.369 6.54909 7.54244V1.60148H6.64775Z" fill="#FF383C"/>
<path d="M17.1559 3.77122C16.5639 3.97786 15.5279 4.02952 14.9852 4.02952H14.1465V1.7048H15.2812C16.3172 1.7048 18.0932 1.91144 18.7346 2.53137V0.309963H11.3838C11.7292 0.774908 11.7785 1.03321 11.7785 1.85978V7.54244C11.7785 8.42066 11.7292 8.67897 11.3838 9.09225H19.2279V6.97417C18.1426 7.80074 16.1199 7.80074 15.2812 7.74908H14.1465V5.32103H14.9852C15.5772 5.32103 16.5639 5.37269 17.1559 5.57934V3.77122Z" fill="#FF383C"/>
<path d="M28.0587 0.619926C26.924 0.258303 25.3453 0 24.2107 0C22.0893 0 20.0173 0.671587 20.0173 2.89299C20.0173 6.71587 26.4307 4.70111 26.4307 7.02583C26.4307 7.80074 25.296 8.1107 24.408 8.1107C22.78 8.1107 21.596 7.8524 20.1653 6.97417V8.88561C21.2506 9.24723 22.6813 9.45387 24.3093 9.45387C26.5294 9.45387 28.6014 8.83395 28.6014 6.61255C28.6014 2.58303 22.188 4.39114 22.188 2.42804C22.188 1.65314 23.224 1.34317 24.112 1.34317C25.6413 1.34317 27.2694 1.80812 28.1574 2.68635V0.619926H28.0587Z" fill="#FF383C"/>
<path d="M41.3295 4.75277C41.3295 2.89299 42.4642 1.39483 44.1909 1.39483C45.9176 1.39483 47.0523 2.89299 47.0523 4.75277C47.1016 6.56089 45.9669 8.05904 44.2402 8.05904C42.4642 8.05904 41.3295 6.56089 41.3295 4.75277ZM49.667 4.64945C49.667 1.85978 47.595 0 44.4869 0C41.1322 0.0516605 38.8135 2.01476 38.8135 4.85609C38.8135 7.5941 40.9349 9.45387 44.0429 9.45387C47.3483 9.45387 49.667 7.49077 49.667 4.64945Z" fill="#FF383C"/>
</svg>
